<svg width="21" height="18" viewBox="0 0 21 18" fill="none" xmlns="http://www.w3.org/2000/svg">
<path d="M1 3.30039C1 2.79648 1.20018 2.31321 1.5565 1.95689C1.91282 1.60057 2.39609 1.40039 2.9 1.40039H18.1C18.6039 1.40039 19.0872 1.60057 19.4435 1.95689C19.7998 2.31321 20 2.79648 20 3.30039V14.7004C20 15.2043 19.7998 15.6876 19.4435 16.0439C19.0872 16.4002 18.6039 16.6004 18.1 16.6004H2.9C2.39609 16.6004 1.91282 16.4002 1.5565 16.0439C1.20018 15.6876 1 15.2043 1 14.7004V3.30039Z" stroke="black" stroke-width="1.70732" stroke-linecap="round" stroke-linejoin="round"/>
<path d="M1 5.2002L8.12595 10.9011C8.79977 11.4403 9.63704 11.734 10.5 11.734C11.363 11.734 12.2002 11.4403 12.874 10.9011L20 5.2002" stroke="black" stroke-width="1.70732" stroke-linejoin="round"/>
</svg>
