<svg width="20" height="24" viewBox="0 0 20 24" fill="none" xmlns="http://www.w3.org/2000/svg">
<path d="M9.6 0C12.1461 0 14.5879 1.01143 16.3882 2.81178C18.1886 4.61212 19.2 7.05392 19.2 9.6V22.8C19.2 23.1183 19.0736 23.4235 18.8485 23.6485C18.6235 23.8736 18.3183 24 18 24H1.2C0.88174 24 0.576515 23.8736 0.351472 23.6485C0.126428 23.4235 0 23.1183 0 22.8V9.6C0 7.05392 1.01143 4.61212 2.81178 2.81178C4.61212 1.01143 7.05392 0 9.6 0V0ZM17.52 12.294H1.68V22.32H17.52V12.294ZM10.0332 13.9476C10.4362 13.9472 10.8277 14.0821 11.1449 14.3306C11.4621 14.5791 11.6868 14.9269 11.7829 15.3183C11.879 15.7097 11.841 16.122 11.675 16.4892C11.509 16.8564 11.2245 17.1573 10.8672 17.3436V19.9464C10.8672 20.1692 10.7787 20.3828 10.6212 20.5404C10.4636 20.6979 10.25 20.7864 10.0272 20.7864C9.80442 20.7864 9.59076 20.6979 9.43323 20.5404C9.2757 20.3828 9.1872 20.1692 9.1872 19.9464V17.3364C8.83278 17.1477 8.55164 16.8459 8.38849 16.479C8.22534 16.1121 8.18954 15.7012 8.2868 15.3116C8.38405 14.922 8.60877 14.5762 8.92522 14.329C9.24167 14.0819 9.63167 13.9476 10.0332 13.9476ZM9.6 1.68C7.49949 1.68 5.485 2.51443 3.99971 3.99971C2.51443 5.485 1.68 7.49949 1.68 9.6V10.614H17.52V9.6C17.52 7.49949 16.6856 5.485 15.2003 3.99971C13.715 2.51443 11.7005 1.68 9.6 1.68Z" fill="black"/>
</svg>
